<svg width="520" height="520" xmlns="http://www.w3.org/2000/svg"><g fill="none" fill-rule="evenodd"><path fill="#FF2540" fill-rule="nonzero" d="M57.97 160.813 31 188.383l398.856-.067 25.147-27.569"/><path fill="#3B3B6D" d="M31.031 188.316h398.825V379.86H31.031z"/><path fill="#D22136" fill-rule="nonzero" d="m429.495 188.316 25.147-27.57.361 191.13-25.147 27.984"/><path fill="#FF2540" fill-rule="nonzero" d="M57.97 27.066 31 54.636l398.856-.067L455.003 27"/><path fill="#3B3B6D" d="M31.031 54.569h398.825v70.785H31.031z"/><path fill="#D22136" fill-rule="nonzero" d="M429.495 54.569 454.642 27l.361 70.051-25.147 28.303"/><path d="m447.952 386.231 57.426-19.779-40.986-15.755-43.905 16.415 11.438 16.414 16.027 2.705ZM492.732 467.521l-48.184 28.323-10.448-6.198v-5.518l43.521-23.701 15.111 7.094Z" fill="#6E6E8D"/><path d="m437.714 397.772-3.614-17.693 13.852 6.152 44.78 81.29-18.88-8.381-18.878-9.007-17.26-52.361Z" fill="#3B3B6D"/><path d="M326.344 248.373 505.47 366.597l-72.259 12.604 48.076 83.27-46.998 27.134-47.74-82.685-47.38 55.692-12.824-214.239Z" fill="#FF2540"/></g></svg>
